<svg xmlns="http://www.w3.org/2000/svg" viewBox="0 0 422.56 405.55"><defs><style>.cls-1{fill:#fff;}</style></defs><title>Fichier 1white</title><g id="Calque_2" data-name="Calque 2"><g id="Capa_1" data-name="Capa 1"><path class="cls-1" d="M419.06,3.14C416.84,1,413.61,0,409.52,0c-32.93,0-122,65.39-196.86,141.77-42.7,43.56-64.48,74.07-73,96.07A102.23,102.23,0,0,1,159.37,247a84,84,0,0,1,14.47,10.88h0A79.93,79.93,0,0,1,193,285.48c21.77-9.71,51.27-32.11,92.4-74.06C369.61,125.54,439.16,22.37,419.06,3.14Z"/><path class="cls-1" d="M150.18,258.23c-11.46-6.82-22.26-10.79-32.81-12.06a63,63,0,0,0-7.36-.44,64.56,64.56,0,0,0-24.15,4.82C55,262.94,52,292.12,49.37,317.86c-3.31,32.05-7,52-39.43,59a12.55,12.55,0,0,0,.79,24.7,355.11,355.11,0,0,0,51.25,4h0c34.55,0,63.05-6.3,84.69-18.72,19.85-11.39,33.14-27.57,38.43-46.78a68.61,68.61,0,0,0,1-31.95A76.12,76.12,0,0,0,150.18,258.23Z"/></g></g></svg>