<svg xmlns="http://www.w3.org/2000/svg" viewBox="0 0 181.09 181.38"><defs><style>.cls-1{fill:#1d1d1b;}</style></defs><title>Fichier 1GEM_logo</title><g id="Calque_2" data-name="Calque 2"><g id="Calque_2-2" data-name="Calque 2"><path class="cls-1" d="M177.72,80.05q-3.36-3.37-9.48-3.37H133.76a11.94,11.94,0,0,0-8.67,3.26q-3.37,3.27-3.37,10.61a26.6,26.6,0,0,0,1.12,7.75,32,32,0,0,0,2.35,5.92H147V123.4a21.29,21.29,0,0,1-5.31,1.83,34.52,34.52,0,0,1-8,.82,39.19,39.19,0,0,1-13.06-2.14,30.28,30.28,0,0,1-10.81-6.53,30.84,30.84,0,0,1-7.45-11.22,43.42,43.42,0,0,1-2.75-16.22q0-17.34,10.1-27.13T137,53A47.55,47.55,0,0,1,154.26,56,84.55,84.55,0,0,1,167,62a21.72,21.72,0,0,0,6.12-6.12,15.82,15.82,0,0,0,2.65-9.18q0-10-11.32-16.22t-30.7-6.22a85.51,85.51,0,0,0-26.22,4.08A66.51,66.51,0,0,0,84.9,40.67,61.35,61.35,0,0,0,69,61.38q-6,12.45-6,29.17,0,15.92,5.51,28a57.1,57.1,0,0,0,15,20.1,62.7,62.7,0,0,0,22.34,12,92.75,92.75,0,0,0,27.54,4,102,102,0,0,0,11.12-.61,100.63,100.63,0,0,0,10.71-1.74,75.57,75.57,0,0,0,9.38-2.65,44.69,44.69,0,0,0,7.14-3.16,23,23,0,0,0,7.14-5.92c1.5-2,2.25-5.16,2.25-9.38V89.53Q181.09,83.41,177.72,80.05Zm-33.05,20.12a2,2,0,0,1-1.5.57H133.06a3,3,0,0,1-3.21-3.22V82.89a3,3,0,0,1,3.21-3.22h11.42a4.31,4.31,0,0,1,.44,1A4.71,4.71,0,0,1,145.1,82a2.49,2.49,0,0,1-.57,1.87,2.06,2.06,0,0,1-1.5.56h-7.3v3.22h7.78a3.92,3.92,0,0,1,.44,1,4.59,4.59,0,0,1,.19,1.3,2.58,2.58,0,0,1-.56,1.87,2,2,0,0,1-1.48.55h-6.37V96h8.89a4,4,0,0,1,.43,1,4.32,4.32,0,0,1,.19,1.31A2.6,2.6,0,0,1,144.67,100.17Zm26.78.59a7.32,7.32,0,0,1-1.64.15,4.89,4.89,0,0,1-2.21-.45,1.88,1.88,0,0,1-1-1.76q-.21-3.78-.26-6.78c0-2-.09-3.69-.16-5.06H166c-.23.9-.57,2-1,3.4s-1,3.1-1.6,5.22a3.34,3.34,0,0,1-1.16.61,5.43,5.43,0,0,1-1.64.22,5.77,5.77,0,0,1-2.06-.31,1.67,1.67,0,0,1-1.05-1.07c-.65-2-1.18-3.68-1.6-4.93s-.73-2.36-1-3.31h-.18q-.1,2-.15,3.72c0,1.12-.06,2.21-.07,3.27s0,2.13-.07,3.22-.09,2.28-.16,3.6a6.63,6.63,0,0,1-1.17.29,9,9,0,0,1-1.46.12,4.87,4.87,0,0,1-2.37-.48,1.86,1.86,0,0,1-.84-1.77l1-17.64a3.23,3.23,0,0,1,1.21-1,5.42,5.42,0,0,1,2.63-.52,6,6,0,0,1,2.87.57A3.38,3.38,0,0,1,157.73,82c.21.55.44,1.19.68,1.9l.73,2.22c.24.76.47,1.52.71,2.26s.43,1.43.62,2h.17c.55-1.94,1.11-3.81,1.66-5.62s1.06-3.33,1.52-4.55a5.45,5.45,0,0,1,1.34-.47,7.74,7.74,0,0,1,1.81-.19,6.63,6.63,0,0,1,2.77.5A2,2,0,0,1,171,81.47c.09.46.19,1.17.29,2.12s.21,2,.33,3.24.23,2.47.35,3.81.22,2.62.32,3.85.2,2.37.26,3.4.12,1.81.14,2.37A4.68,4.68,0,0,1,171.45,100.76Z"/><path class="cls-1" d="M129,181.3a88.77,88.77,0,0,1-17.81-1.13,102.31,102.31,0,0,1-17.46-4.37l-2.14-.75-2.09-.86c-1.39-.61-2.82-1.11-4.17-1.82l-4.09-2-4-2.27a79.56,79.56,0,0,1-14.49-11.26c-1.06-1.11-2.19-2.16-3.2-3.31l-3-3.46-2.81-3.64c-.91-1.24-1.74-2.53-2.62-3.79a104.63,104.63,0,0,1-8.68-16.2,101.84,101.84,0,0,1-7.81-35.81l-.07-2.31c0-.76,0-1.53,0-2.32l.2-4.68.54-4.65c.18-1.55.54-3.07.81-4.6a89.78,89.78,0,0,1,5.68-17.63,98.84,98.84,0,0,1,9.15-16c.92-1.24,1.78-2.5,2.73-3.7l2.9-3.56c2.06-2.27,4.11-4.54,6.35-6.62A87.76,87.76,0,0,1,77.34,13.34,100.5,100.5,0,0,1,93.69,5.43,90.85,90.85,0,0,1,111.15.94,69.76,69.76,0,0,1,129,.33a66.3,66.3,0,0,0-8.8.93c-2.9.51-5.78,1.06-8.6,1.85a93.75,93.75,0,0,0-16.39,6,98.53,98.53,0,0,0-15,8.66A89.22,89.22,0,0,0,67.33,29,96.88,96.88,0,0,0,48.74,57.46a85,85,0,0,0-4.9,16.16c-.22,1.38-.56,2.75-.71,4.14l-.46,4.17-.15,4.17c-.07,1.39.06,2.83.08,4.25a94.2,94.2,0,0,0,2,16.9,101.16,101.16,0,0,0,4.81,16.35,92.46,92.46,0,0,0,17.82,28.91,83.51,83.51,0,0,0,27.92,19.66A107.78,107.78,0,0,0,111.64,178c1.42.37,2.83.77,4.27,1.07l2.15.49,2.17.42C123.12,180.56,126,181,129,181.3Z"/><circle class="cls-1" cx="43.66" cy="16.73" r="11.67"/><path class="cls-1" d="M27.18,84c.55-7.32.9-14.44.81-21.46-.09-1.75-.08-3.5-.23-5.22l-.18-2.59-.3-2.56-.14-1.28-.21-1.25-.42-2.51-.58-2.45a16.16,16.16,0,0,0-.66-2.41,56.56,56.56,0,0,0-9.51-17.67,59,59,0,0,0-7.08-7.52A47,47,0,0,0,0,10.89a22.21,22.21,0,0,1,5.44,1.17,32.26,32.26,0,0,1,5.18,2.21,41.77,41.77,0,0,1,9.2,6.65A45.85,45.85,0,0,1,32,40.29a23.32,23.32,0,0,1,.72,2.82c.2.94.43,1.88.6,2.83l.35,2.84.17,1.43c0,.47,0,.94.06,1.42L34,54.46c0,.95-.05,1.89-.08,2.82,0,1.89-.27,3.74-.45,5.6A65.7,65.7,0,0,1,27.18,84Z"/></g></g></svg>