<svg xmlns="http://www.w3.org/2000/svg" viewBox="0 0 457.1 196.89"><defs><style>.cls-1{fill:#1d1d1b;}.cls-2{fill:#575756;}</style></defs><title>Fichier 1logo</title><g id="Calque_2" data-name="Calque 2"><g id="Calque_2-2" data-name="Calque 2"><path class="cls-1" d="M181.08,131.15c0,4.21-.74,7.34-2.24,9.38a23.42,23.42,0,0,1-7.14,5.92,45.1,45.1,0,0,1-7.14,3.16,78.39,78.39,0,0,1-9.38,2.65A101,101,0,0,1,144.47,154a104.73,104.73,0,0,1-11.12.61,92.65,92.65,0,0,1-27.54-4,62.48,62.48,0,0,1-22.34-12,57.18,57.18,0,0,1-15-20.09Q63,106.46,63,90.55q0-16.72,6-29.17A61.28,61.28,0,0,1,84.9,40.67a66.51,66.51,0,0,1,22.64-12.34,85.51,85.51,0,0,1,26.22-4.08q19.37,0,30.7,6.22t11.32,16.22a15.9,15.9,0,0,1-2.65,9.18A22,22,0,0,1,167,62a83.59,83.59,0,0,0-12.75-6A47.55,47.55,0,0,0,137,53q-17.15,0-27.24,9.79T99.69,89.94a43.26,43.26,0,0,0,2.75,16.22,31,31,0,0,0,7.45,11.22,30.17,30.17,0,0,0,10.81,6.52,39.19,39.19,0,0,0,13.06,2.15,34.52,34.52,0,0,0,8-.82,21,21,0,0,0,5.31-1.84V104.22H125.19a32.29,32.29,0,0,1-2.35-5.92,26.31,26.31,0,0,1-1.12-7.75q0-7.35,3.37-10.61a11.94,11.94,0,0,1,8.67-3.26h34.47q6.12,0,9.49,3.36t3.36,9.49Z"/><path class="cls-1" d="M204.54,46.69q0-8.77,5.1-13.87t13.88-5.11h67.32a24.65,24.65,0,0,1,2.55,5.92,26.65,26.65,0,0,1,1.12,7.75q0,7.75-3.37,11a12.17,12.17,0,0,1-8.87,3.26h-43v19h45.91a24.73,24.73,0,0,1,2.55,5.81,25.63,25.63,0,0,1,1.12,7.65q0,7.75-3.27,11a11.86,11.86,0,0,1-8.77,3.26H239.22V123.8h52.43a24.65,24.65,0,0,1,2.55,5.92,26.32,26.32,0,0,1,1.13,7.75q0,7.75-3.37,11.12a12,12,0,0,1-8.87,3.37H223.52q-8.78,0-13.88-5.11T204.54,133Z"/><path class="cls-1" d="M402.63,121a19.92,19.92,0,0,1-6.83,3.57,32.26,32.26,0,0,1-9.69,1.32A34.37,34.37,0,0,1,374,124a9.75,9.75,0,0,1-6.22-6.33Q362,99.74,358.36,88.61t-5.71-19.48h-1q-.61,12-.92,21.93t-.41,19.28q-.1,9.38-.41,19T349,150.53a36.93,36.93,0,0,1-6.94,1.73,51.62,51.62,0,0,1-8.57.71q-9,0-14-2.85t-5-10.41l5.92-104Q322,33,327.56,30t15.5-3.06q10.81,0,16.93,3.36a20,20,0,0,1,9,10.92c1.22,3.26,2.55,7,4,11.22s2.85,8.57,4.28,13.06,2.82,8.94,4.18,13.36,2.59,8.4,3.68,11.93h1Q391,73.62,395.9,57.6t9-26.82A32.44,32.44,0,0,1,412.73,28a47.47,47.47,0,0,1,10.71-1.12q10,0,16.32,3t7.34,8.46q.82,4.08,1.74,12.55t1.94,19.07q1,10.62,2,22.44t1.93,22.75q.93,10.92,1.53,20c.41,6.06.68,10.71.82,14a27,27,0,0,1-7.24,3,42.34,42.34,0,0,1-9.69.91,29,29,0,0,1-13.06-2.65q-5.31-2.64-5.71-10.4-1.23-22.23-1.53-40T419,70.15h-1q-2,7.95-5.92,20T402.63,121Z"/><path class="cls-1" d="M129,181.3a88.77,88.77,0,0,1-17.81-1.13,102.31,102.31,0,0,1-17.46-4.37l-2.14-.75-2.09-.86c-1.39-.61-2.82-1.11-4.17-1.82l-4.09-2-4-2.27a79.56,79.56,0,0,1-14.49-11.26c-1.06-1.11-2.19-2.16-3.2-3.31l-3-3.46-2.81-3.64c-.91-1.24-1.74-2.53-2.62-3.79a104.63,104.63,0,0,1-8.68-16.2,101.84,101.84,0,0,1-7.81-35.81l-.07-2.31c0-.76,0-1.53,0-2.32l.2-4.68.54-4.65c.18-1.55.54-3.07.81-4.6a89.78,89.78,0,0,1,5.68-17.63,98.84,98.84,0,0,1,9.15-16c.92-1.24,1.78-2.5,2.73-3.7l2.9-3.56c2.06-2.27,4.11-4.54,6.35-6.62A87.76,87.76,0,0,1,77.34,13.34,100.5,100.5,0,0,1,93.69,5.43,90.85,90.85,0,0,1,111.15.94,69.76,69.76,0,0,1,129,.33a66.3,66.3,0,0,0-8.8.93c-2.9.51-5.78,1.06-8.6,1.85a93.75,93.75,0,0,0-16.39,6,98.53,98.53,0,0,0-15,8.66A89.22,89.22,0,0,0,67.33,29,96.88,96.88,0,0,0,48.74,57.46a85,85,0,0,0-4.9,16.16c-.22,1.38-.56,2.75-.71,4.14l-.46,4.17-.15,4.17c-.07,1.39.06,2.83.08,4.25a94.2,94.2,0,0,0,2,16.9,101.16,101.16,0,0,0,4.81,16.35,92.46,92.46,0,0,0,17.82,28.91,83.51,83.51,0,0,0,27.92,19.66A107.78,107.78,0,0,0,111.64,178c1.42.37,2.83.77,4.27,1.07l2.15.49,2.17.42C123.12,180.56,126,181,129,181.3Z"/><circle class="cls-1" cx="43.66" cy="16.73" r="11.67"/><path class="cls-1" d="M27.18,84c.55-7.32.9-14.44.81-21.46-.09-1.75-.08-3.5-.23-5.22l-.18-2.59-.3-2.56-.14-1.28-.21-1.25-.42-2.51-.58-2.45a16.16,16.16,0,0,0-.66-2.41,56.56,56.56,0,0,0-9.51-17.67,59,59,0,0,0-7.08-7.52A47,47,0,0,0,0,10.89a22.21,22.21,0,0,1,5.44,1.17,32.26,32.26,0,0,1,5.18,2.21,41.77,41.77,0,0,1,9.2,6.65A45.85,45.85,0,0,1,32,40.29a23.32,23.32,0,0,1,.72,2.82c.2.94.43,1.88.6,2.83l.35,2.84.17,1.43c0,.47,0,.94.06,1.42L34,54.46c0,.95-.05,1.89-.08,2.82,0,1.89-.27,3.74-.45,5.6A65.7,65.7,0,0,1,27.18,84Z"/><path class="cls-2" d="M159.92,188a6.87,6.87,0,0,1-3.36,6.12q-3.28,2.1-9,2.1c-1.06,0-3.14-.05-6.24-.13q.28-6.32.29-13.94,0-7.17-.29-12.59h2.45c.47,0,1.43,0,2.87-.07s2.49-.06,3.14-.06q8.47,0,8.48,5.85c0,3.05-1.34,5.07-4,6.08v.2Q159.93,182.58,159.92,188Zm-5.09-11.7q0-4.22-5.69-4.22a27.55,27.55,0,0,0-4.63.31q.17,1.47.17,8.29c.66,0,1.39,0,2.2,0a14,14,0,0,0,5.87-.92A3.6,3.6,0,0,0,154.83,176.3Zm1.65,12q0-5-8.89-5c-1.09,0-2,0-2.87.13,0,3.62.07,6.87.22,9.72a14,14,0,0,0,2.73.18q4.92,0,7-1.28A4.08,4.08,0,0,0,156.48,188.35Z"/><path class="cls-2" d="M179.94,196.09l-3.2.13a7.7,7.7,0,0,1-.25-1.9h-.2a9.77,9.77,0,0,1-6.83,2.28,6.25,6.25,0,0,1-4-1.37,4.8,4.8,0,0,1-1.69-3.93,5.94,5.94,0,0,1,2.65-5q2.66-1.9,9.85-2a9.23,9.23,0,0,0,.06-1.12c0-1.67-.45-2.79-1.34-3.34a7.73,7.73,0,0,0-4-.84,25.19,25.19,0,0,0-6.3.8l.35-2.82a25.7,25.7,0,0,1,7-.87,9.08,9.08,0,0,1,5.6,1.5c1.32,1,2,2.7,2,5.1q0,1-.09,3.48c-.06,1.68-.09,2.79-.09,3.35A35.31,35.31,0,0,0,179.94,196.09Zm-3.61-4c-.07-2.07-.1-3.92-.1-5.56a22.54,22.54,0,0,0-5.83.57c-2.23.68-3.34,2-3.34,3.89s1.3,2.77,3.91,2.77A8.11,8.11,0,0,0,176.33,192.14Z"/><path class="cls-2" d="M198.06,190.57q0,6-7.61,6a27.72,27.72,0,0,1-6.27-.67l.63-3a15.83,15.83,0,0,0,5.75,1q4.44,0,4.44-2.53a2.28,2.28,0,0,0-1-1.94,15.78,15.78,0,0,0-3.27-1.62,16.77,16.77,0,0,1-4.2-2.2,4.74,4.74,0,0,1-1.91-3.79,5.3,5.3,0,0,1,1.75-4q1.76-1.67,5.34-1.66a21.74,21.74,0,0,1,5.62.59l-.63,2.94a13.57,13.57,0,0,0-5.09-.88q-3.92,0-3.92,2.26a2.28,2.28,0,0,0,.88,1.85,14.59,14.59,0,0,0,3.42,1.7,16.34,16.34,0,0,1,4.08,2.12A4.82,4.82,0,0,1,198.06,190.57Z"/><path class="cls-2" d="M215.55,190.57q0,6-7.61,6a27.72,27.72,0,0,1-6.27-.67l.63-3a15.83,15.83,0,0,0,5.75,1q4.44,0,4.44-2.53a2.28,2.28,0,0,0-1-1.94,15.78,15.78,0,0,0-3.27-1.62,16.77,16.77,0,0,1-4.2-2.2,4.75,4.75,0,0,1-1.92-3.79,5.31,5.31,0,0,1,1.76-4c1.16-1.11,2.95-1.66,5.34-1.66a21.79,21.79,0,0,1,5.62.59l-.63,2.94a13.62,13.62,0,0,0-5.1-.88c-2.6,0-3.91.75-3.91,2.26a2.25,2.25,0,0,0,.88,1.85,14.59,14.59,0,0,0,3.42,1.7,16.34,16.34,0,0,1,4.08,2.12A4.82,4.82,0,0,1,215.55,190.57Z"/><path class="cls-2" d="M223.78,196.09h-3.69c.19-2.71.29-5.82.29-9.31a57.1,57.1,0,0,0-.72-9.89l4.08-.55c-.16,2.84-.25,6.32-.25,10.44C223.49,190,223.59,193.15,223.78,196.09Zm.86-25.47a2.64,2.64,0,0,1-.68,1.8,2.37,2.37,0,0,1-1.89.76,2.05,2.05,0,0,1-1.62-.66,2.32,2.32,0,0,1-.58-1.6,2.53,2.53,0,0,1,.69-1.77,2.48,2.48,0,0,1,1.92-.76,2,2,0,0,1,1.58.67A2.32,2.32,0,0,1,224.64,170.62Z"/><path class="cls-2" d="M246.45,196.09h-3.71q.44-5.35.44-11.7c0-2.09-.42-3.52-1.27-4.29a5.28,5.28,0,0,0-3.64-1.15,8,8,0,0,0-5.34,2.1q0,7,.08,15H229.3q.34-6.93.35-10a47,47,0,0,0-.9-9.26l3.59-.51.39,2.49h.16a9.5,9.5,0,0,1,6.46-2.73,8.13,8.13,0,0,1,5.24,1.5q1.86,1.49,1.86,5.33c0,.25,0,.76,0,1.53s0,1.27,0,1.52C246.36,188.21,246.39,191.6,246.45,196.09Z"/><path class="cls-2" d="M278.41,196.07l-3,.1a10,10,0,0,1-.16-1.85H275q-2.14,2.33-6.36,2.32a7.51,7.51,0,0,1-6.16-2.81,10.39,10.39,0,0,1-2.3-6.79,12.21,12.21,0,0,1,2.55-7.76,8.57,8.57,0,0,1,7.18-3.26q3.3,0,4.72,1.34h.17q0-5.06-.29-9.92l3.87-.15c-.25,3.46-.38,8-.38,13.56S278.12,191.6,278.41,196.07Zm-3.29-4q0-6.34-.34-12.21a6.26,6.26,0,0,0-4.12-1.37,6,6,0,0,0-5.16,2.3,9.32,9.32,0,0,0-1.71,5.75,8.33,8.33,0,0,0,1.62,5.22,5.33,5.33,0,0,0,4.5,2.12Q273.51,193.87,275.12,192.06Z"/><path class="cls-2" d="M290,170.11a9.87,9.87,0,0,1-1.4,5.08,20.87,20.87,0,0,1-4.3,4.9l-1.23-1.34c2.07-2.31,3.1-4.45,3.1-6.4a2.55,2.55,0,0,1-1.75-2.57,3.14,3.14,0,0,1,.73-2.07,2.68,2.68,0,0,1,2.18-.89,2.34,2.34,0,0,1,1.93,1A3.67,3.67,0,0,1,290,170.11Z"/><path class="cls-2" d="M316.72,196.09h-4.3q0-1.36-2.56-8.58H298.1c-1.69,4.74-2.53,7.61-2.53,8.58h-4.12q0-.75,5.26-13t5.26-13.5h4.73q0,1.2,5,13.31T316.72,196.09Zm-7.8-11.25q-4.8-12-4.79-12.72h-.23c0,.42-1.65,4.67-4.95,12.72Z"/><path class="cls-2" d="M332,176.73,331,180a8,8,0,0,0-2.95-.63,4.78,4.78,0,0,0-5,3.65q0,9.38.13,13.1h-3.61c.22-4.3.32-7.65.32-10a43.53,43.53,0,0,0-.95-9.26l3.56-.51a22.16,22.16,0,0,1,.39,3h.16q2.2-3.24,5.14-3.24A12.76,12.76,0,0,1,332,176.73Z"/><path class="cls-2" d="M349.26,193l-.21,2.73a9,9,0,0,1-4.42.93q-5.28,0-8.07-2.91a9.77,9.77,0,0,1-2.8-7,10.58,10.58,0,0,1,2.94-7.5,10.1,10.1,0,0,1,7.76-3.14,13.16,13.16,0,0,1,4,.49l-.55,3.2a12.42,12.42,0,0,0-4.34-.8,5.75,5.75,0,0,0-4.61,2,7.55,7.55,0,0,0-1.71,5.05,7.79,7.79,0,0,0,2,5.51,7.46,7.46,0,0,0,5.77,2.2A17.17,17.17,0,0,0,349.26,193Z"/><path class="cls-2" d="M368.6,196.09l-3.2.13a7.7,7.7,0,0,1-.25-1.9H365a9.77,9.77,0,0,1-6.83,2.28,6.21,6.21,0,0,1-4-1.37,4.78,4.78,0,0,1-1.7-3.93,5.94,5.94,0,0,1,2.65-5q2.65-1.9,9.85-2a9.23,9.23,0,0,0,.06-1.12c0-1.67-.45-2.79-1.34-3.34a7.7,7.7,0,0,0-4-.84,25.31,25.31,0,0,0-6.3.8l.35-2.82a25.7,25.7,0,0,1,7-.87,9.08,9.08,0,0,1,5.6,1.5c1.32,1,2,2.7,2,5.1q0,1-.09,3.48c-.06,1.68-.09,2.79-.09,3.35A35.31,35.31,0,0,0,368.6,196.09Zm-3.61-4c-.07-2.07-.1-3.92-.1-5.56a22.54,22.54,0,0,0-5.83.57c-2.23.68-3.34,2-3.34,3.89s1.3,2.77,3.91,2.77A8.11,8.11,0,0,0,365,192.14Z"/><path class="cls-2" d="M388.59,193l-.2,2.73a9,9,0,0,1-4.42.93q-5.28,0-8.08-2.91a9.8,9.8,0,0,1-2.79-7,10.58,10.58,0,0,1,2.94-7.5,10.08,10.08,0,0,1,7.76-3.14,13.16,13.16,0,0,1,4,.49l-.55,3.2a12.42,12.42,0,0,0-4.34-.8,5.75,5.75,0,0,0-4.61,2,7.55,7.55,0,0,0-1.71,5.05,7.79,7.79,0,0,0,2,5.51,7.44,7.44,0,0,0,5.76,2.2A17,17,0,0,0,388.59,193Z"/><path class="cls-2" d="M409.89,196.09h-3.71c.3-3.57.45-7.42.45-11.53,0-2.2-.41-3.69-1.23-4.46A4.84,4.84,0,0,0,402,179a9.09,9.09,0,0,0-5.72,2.1q0,11.13.16,15h-3.59q.19-5.37.19-15.2a116.47,116.47,0,0,0-.6-13.47l3.88-.21c-.11,4.15-.17,8-.17,11.54h.13a9.9,9.9,0,0,1,6.7-2.69,7.72,7.72,0,0,1,5.1,1.52q1.83,1.51,1.83,5.33c0,.25,0,.76,0,1.51s0,1.42,0,2Q409.81,189.35,409.89,196.09Z"/><path class="cls-2" d="M433.84,185.82q0,5.22-3,8.14a9.78,9.78,0,0,1-7.06,2.93,9.12,9.12,0,0,1-6.51-2.59,9.62,9.62,0,0,1-2.72-7.3q0-5.25,3-8.21a9.75,9.75,0,0,1,7.06-3,9,9,0,0,1,6.5,2.62A9.78,9.78,0,0,1,433.84,185.82Zm-3.52.71a10.25,10.25,0,0,0-1.6-5.65,5.47,5.47,0,0,0-9.07-.13,9.43,9.43,0,0,0-1.58,5.44,10.13,10.13,0,0,0,1.6,5.66,5.48,5.48,0,0,0,9.08.12A9.62,9.62,0,0,0,430.32,186.53Z"/><path class="cls-2" d="M455.81,196.09h-3.7q.43-5.35.44-11.7c0-2.09-.42-3.52-1.27-4.29a5.28,5.28,0,0,0-3.64-1.15,8,8,0,0,0-5.34,2.1q0,7,.08,15h-3.71q.34-6.93.35-10a47,47,0,0,0-.9-9.26l3.59-.51.39,2.49h.16a9.48,9.48,0,0,1,6.46-2.73,8.13,8.13,0,0,1,5.24,1.5c1.24,1,1.85,2.77,1.85,5.33,0,.25,0,.76,0,1.53s0,1.27,0,1.52C455.73,188.21,455.76,191.6,455.81,196.09Z"/></g></g></svg>